<mxfile host="app.diagrams.net" modified="2022-10-09T05:16:29.829Z" agent="5.0 (Macintosh; Intel Mac OS X 10_15_7) AppleWebKit/537.36 (KHTML, like Gecko) Chrome/105.0.0.0 Safari/537.36" etag="iP1XUohCgpGsnA0oA02t" version="20.4.0" type="github">
  <diagram id="BRjr9ZerOnp95mnlU1ed" name="Page-1">
    <mxGraphModel dx="1426" dy="794" grid="1" gridSize="10" guides="1" tooltips="1" connect="1" arrows="1" fold="1" page="1" pageScale="1" pageWidth="850" pageHeight="1100" math="0" shadow="0">
      <root>
        <mxCell id="0" />
        <mxCell id="1" parent="0" />
        <mxCell id="RLKBM7uX8HX1U-3OUpCM-6" value="&lt;font style=&quot;user-select: auto; font-size: 14px;&quot;&gt;the height = 32&lt;/font&gt;" style="rounded=1;whiteSpace=wrap;html=1;" parent="1" vertex="1">
          <mxGeometry x="200" y="470" width="110" height="50" as="geometry" />
        </mxCell>
        <mxCell id="RLKBM7uX8HX1U-3OUpCM-11" value="&lt;font style=&quot;user-select: auto; font-size: 14px;&quot;&gt;the height = 64&lt;/font&gt;" style="rounded=1;whiteSpace=wrap;html=1;" parent="1" vertex="1">
          <mxGeometry x="290" y="350" width="110" height="50" as="geometry" />
        </mxCell>
        <mxCell id="RLKBM7uX8HX1U-3OUpCM-12" value="&lt;font style=&quot;user-select: auto; font-size: 14px;&quot;&gt;the height = 96&lt;/font&gt;" style="rounded=1;whiteSpace=wrap;html=1;" parent="1" vertex="1">
          <mxGeometry x="160" y="260" width="110" height="50" as="geometry" />
        </mxCell>
        <mxCell id="RLKBM7uX8HX1U-3OUpCM-13" value="&lt;font style=&quot;user-select: auto; font-size: 14px;&quot;&gt;the height = 128&lt;/font&gt;" style="rounded=1;whiteSpace=wrap;html=1;" parent="1" vertex="1">
          <mxGeometry x="290" y="150" width="110" height="50" as="geometry" />
        </mxCell>
        <mxCell id="RLKBM7uX8HX1U-3OUpCM-14" value="Root" style="verticalLabelPosition=bottom;verticalAlign=top;html=1;shape=mxgraph.basic.acute_triangle;dx=0.5;fontSize=14;fillColor=#f8cecc;strokeColor=#b85450;" parent="1" vertex="1">
          <mxGeometry x="250" y="580" width="85" height="60" as="geometry" />
        </mxCell>
        <mxCell id="RLKBM7uX8HX1U-3OUpCM-15" value="" style="endArrow=classic;html=1;rounded=0;fontSize=14;strokeWidth=1.5;entryX=0;entryY=0;entryDx=42.5;entryDy=0;dashed=1;entryPerimeter=0;exitX=0.5;exitY=1;exitDx=0;exitDy=0;" parent="1" source="RLKBM7uX8HX1U-3OUpCM-6" target="RLKBM7uX8HX1U-3OUpCM-14" edge="1">
          <mxGeometry width="50" height="50" relative="1" as="geometry">
            <mxPoint x="340" y="540" as="sourcePoint" />
            <mxPoint x="450" y="380" as="targetPoint" />
          </mxGeometry>
        </mxCell>
        <mxCell id="RLKBM7uX8HX1U-3OUpCM-16" value="" style="endArrow=classic;html=1;rounded=0;fontSize=14;strokeWidth=1.5;entryX=0.5;entryY=0;entryDx=0;entryDy=0;dashed=1;exitX=0.5;exitY=1;exitDx=0;exitDy=0;" parent="1" source="RLKBM7uX8HX1U-3OUpCM-11" target="RLKBM7uX8HX1U-3OUpCM-6" edge="1">
          <mxGeometry width="50" height="50" relative="1" as="geometry">
            <mxPoint x="265" y="520" as="sourcePoint" />
            <mxPoint x="302.5" y="590" as="targetPoint" />
          </mxGeometry>
        </mxCell>
        <mxCell id="RLKBM7uX8HX1U-3OUpCM-17" value="" style="endArrow=classic;html=1;rounded=0;fontSize=14;strokeWidth=1.5;entryX=0.5;entryY=0;entryDx=0;entryDy=0;dashed=1;exitX=0.5;exitY=1;exitDx=0;exitDy=0;" parent="1" source="RLKBM7uX8HX1U-3OUpCM-12" target="RLKBM7uX8HX1U-3OUpCM-11" edge="1">
          <mxGeometry width="50" height="50" relative="1" as="geometry">
            <mxPoint x="355" y="410" as="sourcePoint" />
            <mxPoint x="265" y="470" as="targetPoint" />
          </mxGeometry>
        </mxCell>
        <mxCell id="RLKBM7uX8HX1U-3OUpCM-18" value="" style="endArrow=classic;html=1;rounded=0;fontSize=14;strokeWidth=1.5;entryX=0.5;entryY=0;entryDx=0;entryDy=0;dashed=1;exitX=0.5;exitY=1;exitDx=0;exitDy=0;" parent="1" source="RLKBM7uX8HX1U-3OUpCM-13" target="RLKBM7uX8HX1U-3OUpCM-12" edge="1">
          <mxGeometry width="50" height="50" relative="1" as="geometry">
            <mxPoint x="205" y="320" as="sourcePoint" />
            <mxPoint x="355" y="360" as="targetPoint" />
          </mxGeometry>
        </mxCell>
        <mxCell id="RLKBM7uX8HX1U-3OUpCM-19" value="&lt;font style=&quot;user-select: auto; font-size: 14px;&quot;&gt;checkpoint&lt;/font&gt;" style="text;html=1;strokeColor=none;fillColor=none;align=center;verticalAlign=middle;whiteSpace=wrap;rounded=0;fontSize=14;" parent="1" vertex="1">
          <mxGeometry x="335" y="480" width="60" height="30" as="geometry" />
        </mxCell>
        <mxCell id="RLKBM7uX8HX1U-3OUpCM-20" value="&lt;font style=&quot;user-select: auto; font-size: 18px;&quot;&gt;checkpoint tree&lt;/font&gt;" style="text;html=1;strokeColor=none;fillColor=none;align=center;verticalAlign=middle;whiteSpace=wrap;rounded=0;fontSize=14;" parent="1" vertex="1">
          <mxGeometry x="225" y="700" width="185" height="30" as="geometry" />
        </mxCell>
        <mxCell id="RLKBM7uX8HX1U-3OUpCM-21" value="&lt;font style=&quot;user-select: auto; font-size: 14px;&quot;&gt;checkpoint&lt;/font&gt;" style="text;html=1;strokeColor=none;fillColor=none;align=center;verticalAlign=middle;whiteSpace=wrap;rounded=0;fontSize=14;" parent="1" vertex="1">
          <mxGeometry x="425" y="360" width="60" height="30" as="geometry" />
        </mxCell>
        <mxCell id="RLKBM7uX8HX1U-3OUpCM-22" value="&lt;font style=&quot;user-select: auto; font-size: 14px;&quot;&gt;checkpoint&lt;/font&gt;" style="text;html=1;strokeColor=none;fillColor=none;align=center;verticalAlign=middle;whiteSpace=wrap;rounded=0;fontSize=14;" parent="1" vertex="1">
          <mxGeometry x="290" y="270" width="60" height="30" as="geometry" />
        </mxCell>
        <mxCell id="RLKBM7uX8HX1U-3OUpCM-23" value="&lt;font style=&quot;user-select: auto; font-size: 14px;&quot;&gt;checkpoint&lt;/font&gt;" style="text;html=1;strokeColor=none;fillColor=none;align=center;verticalAlign=middle;whiteSpace=wrap;rounded=0;fontSize=14;" parent="1" vertex="1">
          <mxGeometry x="420" y="160" width="60" height="30" as="geometry" />
        </mxCell>
        <mxCell id="kp-4Tf_oLVRb0lPBXuIM-1" value="node vote to checkpoint" style="text;html=1;strokeColor=none;fillColor=none;align=center;verticalAlign=middle;whiteSpace=wrap;rounded=0;" vertex="1" parent="1">
          <mxGeometry x="560" y="180" width="170" height="30" as="geometry" />
        </mxCell>
      </root>
    </mxGraphModel>
  </diagram>
</mxfile>
